<?xml version="1.0" encoding="UTF-8" standalone="no"?>
<!-- Created with Inkscape (http://www.inkscape.org/) -->

<svg
   xmlns:dc="http://purl.org/dc/elements/1.1/"
   xmlns:cc="http://creativecommons.org/ns#"
   xmlns:rdf="http://www.w3.org/1999/02/22-rdf-syntax-ns#"
   xmlns:svg="http://www.w3.org/2000/svg"
   xmlns="http://www.w3.org/2000/svg"
   xmlns:sodipodi="http://sodipodi.sourceforge.net/DTD/sodipodi-0.dtd"
   xmlns:inkscape="http://www.inkscape.org/namespaces/inkscape"
   width="210mm"
   height="297mm"
   id="svg2"
   version="1.1"
   inkscape:version="0.48.5 r10040"
   sodipodi:docname="Destination.svg">
  <defs
     id="defs4" />
  <sodipodi:namedview
     id="base"
     pagecolor="#ffffff"
     bordercolor="#666666"
     borderopacity="1.0"
     inkscape:pageopacity="0.0"
     inkscape:pageshadow="2"
     inkscape:zoom="2.8"
     inkscape:cx="285.33359"
     inkscape:cy="612.34052"
     inkscape:document-units="px"
     inkscape:current-layer="layer1"
     showgrid="false"
     showguides="true"
     inkscape:guide-bbox="true"
     inkscape:window-width="1920"
     inkscape:window-height="1053"
     inkscape:window-x="0"
     inkscape:window-y="27"
     inkscape:window-maximized="1">
    <sodipodi:guide
       orientation="0,1"
       position="217.68787,648.51793"
       id="guide3756" />
    <sodipodi:guide
       orientation="1,0"
       position="175.26147,665.43799"
       id="guide3758" />
    <sodipodi:guide
       orientation="0,1"
       position="222.36607,632.92411"
       id="guide3767" />
  </sodipodi:namedview>
  <metadata
     id="metadata7">
    <rdf:RDF>
      <cc:Work
         rdf:about="">
        <dc:format>image/svg+xml</dc:format>
        <dc:type
           rdf:resource="http://purl.org/dc/dcmitype/StillImage" />
        <dc:title></dc:title>
      </cc:Work>
    </rdf:RDF>
  </metadata>
  <g
     inkscape:label="Ebene 1"
     inkscape:groupmode="layer"
     id="layer1">
    <path
       style="fill:none;stroke:#ff7000;stroke-width:5.50000000000000000;stroke-linecap:round;stroke-linejoin:round;stroke-miterlimit:4;stroke-opacity:1;stroke-dasharray:none"
       d="m 323.17539,381.00391 0,16.8795 -78.04741,0 c -0.14411,0 -0.26191,0.0619 -0.26191,0.16309 l 0,21.39157 0,1.38624 0,21.39158 c 0,0.10116 0.1178,0.16309 0.26191,0.16309 l 78.04741,0 0,16.8795 c 0.01,0.0146 38.16107,-39.14038 38.15943,-39.14088 -11.46822,-11.85212 -25.75088,-26.38872 -38.15943,-39.11369 z"
       id="rect2985"
       inkscape:connector-curvature="0"
       sodipodi:nodetypes="ccssccsscccc" />
    <path
       style="fill:none;stroke:#ff7000;stroke-width:5.50000000000000000;stroke-linecap:round;stroke-linejoin:round;stroke-miterlimit:4;stroke-opacity:1;stroke-dashoffset:0"
       d="m 283.25,451.5 c 11.49772,21.63404 34.26083,36.375 60.46875,36.375 37.79717,0 68.4375,-30.64033 68.4375,-68.4375 0,-37.79718 -30.64033,-68.4375 -68.4375,-68.4375 -26.20792,0 -48.97103,14.74095 -60.46875,36.375"
       id="path3769"
       inkscape:connector-curvature="0"
       sodipodi:nodetypes="csssc" />
    <path
       style="fill:none;stroke:#ff7000;stroke-width:5.50000000000000000;stroke-linecap:round;stroke-linejoin:round;stroke-miterlimit:4;stroke-opacity:1;stroke-dasharray:none;stroke-dashoffset:0"
       d="m 343.70473,351.00024 c -4.45197,0 -8.81622,0.43819 -13.03125,1.25 34.74061,10.04613 60.15625,42.08534 60.15625,80.0625 0,17.6301 -5.47071,33.97188 -14.8125,47.4375 21.48854,-11.54257 36.125,-34.21226 36.125,-60.3125 0,-37.79717 -30.64033,-68.4375 -68.4375,-68.4375 z"
       id="path3771"
       inkscape:connector-curvature="0" />
  </g>
</svg>
