<?xml version="1.0" encoding="UTF-8" standalone="no"?>
<!-- Created with Inkscape (http://www.inkscape.org/) -->

<svg
   xmlns:dc="http://purl.org/dc/elements/1.1/"
   xmlns:cc="http://creativecommons.org/ns#"
   xmlns:rdf="http://www.w3.org/1999/02/22-rdf-syntax-ns#"
   xmlns:svg="http://www.w3.org/2000/svg"
   xmlns="http://www.w3.org/2000/svg"
   xmlns:sodipodi="http://sodipodi.sourceforge.net/DTD/sodipodi-0.dtd"
   xmlns:inkscape="http://www.inkscape.org/namespaces/inkscape"
   width="124.70555"
   height="76.125"
   id="svg2"
   version="1.1"
   inkscape:version="0.48.5 r10040"
   sodipodi:docname="Logo.svg"
   inkscape:export-filename="/home/marcus/gows/src/github.com/CmdrVasquess/BCplus/bcplus.d/s/img/Logo.png"
   inkscape:export-xdpi="189.16257"
   inkscape:export-ydpi="189.16257">
  <defs
     id="defs4" />
  <sodipodi:namedview
     id="base"
     pagecolor="#ffffff"
     bordercolor="#666666"
     borderopacity="1.0"
     inkscape:pageopacity="0.0"
     inkscape:pageshadow="2"
     inkscape:zoom="3.959798"
     inkscape:cx="62.673318"
     inkscape:cy="32.342955"
     inkscape:document-units="px"
     inkscape:current-layer="layer1"
     showgrid="false"
     inkscape:window-width="1920"
     inkscape:window-height="1053"
     inkscape:window-x="0"
     inkscape:window-y="27"
     inkscape:window-maximized="1"
     fit-margin-top="0"
     fit-margin-left="0"
     fit-margin-right="0"
     fit-margin-bottom="0" />
  <metadata
     id="metadata7">
    <rdf:RDF>
      <cc:Work
         rdf:about="">
        <dc:format>image/svg+xml</dc:format>
        <dc:type
           rdf:resource="http://purl.org/dc/dcmitype/StillImage" />
        <dc:title />
      </cc:Work>
    </rdf:RDF>
  </metadata>
  <g
     inkscape:label="Ebene 1"
     inkscape:groupmode="layer"
     id="layer1"
     transform="translate(-101.34375,-355.9375)">
    <text
       xml:space="preserve"
       style="font-size:20px;font-style:normal;font-variant:normal;font-weight:normal;font-stretch:normal;text-align:center;line-height:100%;letter-spacing:0px;word-spacing:0px;writing-mode:lr-tb;text-anchor:middle;fill:#000000;fill-opacity:1;stroke:none;font-family:Arial;-inkscape-font-specification:Arial"
       x="225.71429"
       y="406.64789"
       id="text2985"
       sodipodi:linespacing="100%"><tspan
         sodipodi:role="line"
         id="tspan2987"
         x="225.71429"
         y="406.64789"
         style="font-size:40px;font-style:normal;font-variant:normal;font-weight:600;font-stretch:normal;font-family:Latin Modern Sans Demi Cond;-inkscape-font-specification:Latin Modern Sans Demi Cond Semi-Bold" /></text>
    <path
       style="fill:#0080ff;fill-opacity:1;stroke:none"
       d="m 101.34375,355.9375 0,9.15625 0,57.8125 0,9.15625 10.8125,0 1.6875,0 25.71875,0 c 7.02326,0 12.81323,-5.02763 14.03125,-11.6875 l -14.71875,0 c -1.48404,1.02811 -3.30016,1.625 -5.25,1.625 l -19.78125,0 0,-22.90625 19.78125,0 c 4.9941,0 9.00611,3.94984 9.15625,8.90625 l 11.0625,0 0,-2.375 0,-2.3125 c 0,-3.56471 -1.29453,-6.81602 -3.4375,-9.3125 2.14475,-2.49694 3.4375,-5.74613 3.4375,-9.3125 l 0,-2.3125 0,-2.40625 -11.0625,0 c -0.13397,4.97116 -4.15159,8.9375 -9.15625,8.9375 l -19.78125,0 0,-22.90625 19.78125,0 c 1.92473,0 3.71445,0.58975 5.1875,1.59375 l 14.78125,0 C 152.3636,360.94909 146.57503,355.9375 139.5625,355.9375 l -25.71875,0 -1.6875,0 -10.8125,0 z"
       id="path3786"
       inkscape:connector-curvature="0" />
    <path
       style="fill:#0080ff;fill-opacity:1;stroke:none"
       d="m 130.21875,369.3125 c -7.91429,0 -14.28125,5.57729 -14.28125,12.5 l 0,5.4375 11.03125,0 0,-1.09375 c 0,-4.45211 4.09768,-8.03125 9.1875,-8.03125 l 21.34375,0 c 4.41999,0 8.07887,2.71675 8.96875,6.34375 l 11.25,0 0,-2.65625 c 0,-6.92271 -6.36696,-12.5 -14.28125,-12.5 l -33.21875,0 z m -14.28125,31.4375 0,5.4375 c 0,6.92271 6.36696,12.5 14.28125,12.5 l 33.21875,0 c 7.91429,0 14.28125,-5.57729 14.28125,-12.5 l 0,-2.65625 -11.25,0 c -0.88988,3.627 -4.54876,6.34375 -8.96875,6.34375 l -21.34375,0 c -5.08982,0 -9.1875,-3.57914 -9.1875,-8.03125 l 0,-1.09375 -11.03125,0 z"
       id="rect2989"
       inkscape:connector-curvature="0" />
    <path
       style="fill:none;stroke:#ff7000;stroke-width:3;stroke-linecap:round;stroke-linejoin:miter;stroke-miterlimit:4;stroke-opacity:1;stroke-dasharray:none"
       d="m 160.37576,388.29444 64.17354,0"
       id="path3873"
       inkscape:connector-curvature="0" />
    <path
       inkscape:connector-curvature="0"
       id="path3875"
       d="m 160.37576,393.9611 64.17354,0"
       style="fill:none;stroke:#ff7000;stroke-width:3;stroke-linecap:round;stroke-linejoin:miter;stroke-miterlimit:4;stroke-opacity:1;stroke-dasharray:none" />
    <path
       style="fill:none;stroke:#ff7000;stroke-width:3;stroke-linecap:round;stroke-linejoin:miter;stroke-miterlimit:4;stroke-opacity:1;stroke-dasharray:none"
       d="m 160.37576,399.62777 64.17354,0"
       id="path3877"
       inkscape:connector-curvature="0" />
    <path
       inkscape:connector-curvature="0"
       id="path3865"
       d="m 181.67751,365.62777 21.57004,0"
       style="fill:none;stroke:#ba5100;stroke-width:3;stroke-linecap:round;stroke-linejoin:miter;stroke-miterlimit:4;stroke-opacity:1;stroke-dasharray:none" />
    <path
       style="fill:none;stroke:#ff7000;stroke-width:3;stroke-linecap:round;stroke-linejoin:miter;stroke-miterlimit:4;stroke-opacity:1;stroke-dasharray:none"
       d="m 181.67751,371.29444 21.57004,0"
       id="path3867"
       inkscape:connector-curvature="0" />
    <path
       inkscape:connector-curvature="0"
       id="path3869"
       d="m 181.67751,376.9611 21.57004,0"
       style="fill:none;stroke:#ff7000;stroke-width:3;stroke-linecap:round;stroke-linejoin:miter;stroke-miterlimit:4;stroke-opacity:1;stroke-dasharray:none" />
    <path
       inkscape:connector-curvature="0"
       id="path3871"
       d="m 181.67751,382.62777 21.57004,0"
       style="fill:none;stroke:#ff7000;stroke-width:3;stroke-linecap:round;stroke-linejoin:miter;stroke-miterlimit:4;stroke-opacity:1;stroke-dasharray:none" />
    <path
       style="fill:none;stroke:#ff7000;stroke-width:3;stroke-linecap:round;stroke-linejoin:miter;stroke-miterlimit:4;stroke-opacity:1;stroke-dasharray:none"
       d="m 181.67751,405.29443 21.57004,0"
       id="path3879"
       inkscape:connector-curvature="0" />
    <path
       inkscape:connector-curvature="0"
       id="path3881"
       d="m 181.67751,410.9611 21.57004,0"
       style="fill:none;stroke:#ff7000;stroke-width:3;stroke-linecap:round;stroke-linejoin:miter;stroke-miterlimit:4;stroke-opacity:1;stroke-dasharray:none" />
    <path
       style="fill:none;stroke:#ff7000;stroke-width:3;stroke-linecap:round;stroke-linejoin:miter;stroke-miterlimit:4;stroke-opacity:1;stroke-dasharray:none"
       d="m 181.67751,416.62777 21.57004,0"
       id="path3883"
       inkscape:connector-curvature="0" />
    <path
       inkscape:connector-curvature="0"
       id="path3885"
       d="m 181.67751,422.29443 21.57004,0"
       style="fill:none;stroke:#ba5100;stroke-width:3;stroke-linecap:round;stroke-linejoin:miter;stroke-miterlimit:4;stroke-opacity:1;stroke-dasharray:none" />
    <path
       style="fill:none;stroke:#692e00;stroke-width:3;stroke-linecap:round;stroke-linejoin:miter;stroke-miterlimit:4;stroke-opacity:1;stroke-dasharray:none"
       d="m 181.67751,359.9611 21.57004,0"
       id="path3870"
       inkscape:connector-curvature="0" />
    <path
       inkscape:connector-curvature="0"
       id="path3872"
       d="m 181.67751,427.9611 21.57004,0"
       style="fill:none;stroke:#692e00;stroke-width:3;stroke-linecap:round;stroke-linejoin:miter;stroke-miterlimit:4;stroke-opacity:1;stroke-dasharray:none" />
  </g>
</svg>
