<?xml version="1.0" encoding="UTF-8" standalone="no"?>
<!-- Created with Inkscape (http://www.inkscape.org/) -->

<svg
   xmlns:dc="http://purl.org/dc/elements/1.1/"
   xmlns:cc="http://creativecommons.org/ns#"
   xmlns:rdf="http://www.w3.org/1999/02/22-rdf-syntax-ns#"
   xmlns:svg="http://www.w3.org/2000/svg"
   xmlns="http://www.w3.org/2000/svg"
   xmlns:sodipodi="http://sodipodi.sourceforge.net/DTD/sodipodi-0.dtd"
   xmlns:inkscape="http://www.inkscape.org/namespaces/inkscape"
   width="270"
   height="176.42857"
   id="svg2"
   version="1.1"
   inkscape:version="0.48.5 r10040"
   sodipodi:docname="TrvlShort.svg">
  <defs
     id="defs4" />
  <sodipodi:namedview
     id="base"
     pagecolor="#ffffff"
     bordercolor="#666666"
     borderopacity="1.0"
     inkscape:pageopacity="0.0"
     inkscape:pageshadow="2"
     inkscape:zoom="1.4"
     inkscape:cx="152.86483"
     inkscape:cy="76.195879"
     inkscape:document-units="px"
     inkscape:current-layer="layer1"
     showgrid="false"
     fit-margin-top="0"
     fit-margin-left="0"
     fit-margin-right="0"
     fit-margin-bottom="0"
     inkscape:window-width="1137"
     inkscape:window-height="854"
     inkscape:window-x="0"
     inkscape:window-y="27"
     inkscape:window-maximized="0" />
  <metadata
     id="metadata7">
    <rdf:RDF>
      <cc:Work
         rdf:about="">
        <dc:format>image/svg+xml</dc:format>
        <dc:type
           rdf:resource="http://purl.org/dc/dcmitype/StillImage" />
        <dc:title />
      </cc:Work>
    </rdf:RDF>
  </metadata>
  <g
     inkscape:label="dots"
     inkscape:groupmode="layer"
     id="layer1"
     transform="translate(-327.14285,-225.21932)">
    <path
       sodipodi:type="arc"
       style="fill:#00a6ea;fill-opacity:1;stroke:none"
       id="path2985"
       sodipodi:cx="253.92857"
       sodipodi:cy="345.57648"
       sodipodi:rx="6.0714288"
       sodipodi:ry="6.0714288"
       d="m 260,345.57648 c 0,3.35315 -2.71827,6.07143 -6.07143,6.07143 -3.35315,0 -6.07143,-2.71828 -6.07143,-6.07143 0,-3.35316 2.71828,-6.07143 6.07143,-6.07143 3.35316,0 6.07143,2.71827 6.07143,6.07143 z"
       transform="matrix(3.235294,0,0,3.235294,-474.74788,-794.6079)" />
    <path
       transform="matrix(3.235294,0,0,3.235294,-374.74788,-736.03647)"
       d="m 260,345.57648 c 0,3.35315 -2.71827,6.07143 -6.07143,6.07143 -3.35315,0 -6.07143,-2.71828 -6.07143,-6.07143 0,-3.35316 2.71828,-6.07143 6.07143,-6.07143 3.35316,0 6.07143,2.71827 6.07143,6.07143 z"
       sodipodi:ry="6.0714288"
       sodipodi:rx="6.0714288"
       sodipodi:cy="345.57648"
       sodipodi:cx="253.92857"
       id="path3791"
       style="fill:#00a6ea;fill-opacity:1;stroke:none"
       sodipodi:type="arc" />
    <path
       sodipodi:type="arc"
       style="fill:#00a6ea;fill-opacity:1;stroke:none"
       id="path3793"
       sodipodi:cx="253.92857"
       sodipodi:cy="345.57648"
       sodipodi:rx="6.0714288"
       sodipodi:ry="6.0714288"
       d="m 260,345.57648 c 0,3.35315 -2.71827,6.07143 -6.07143,6.07143 -3.35315,0 -6.07143,-2.71828 -6.07143,-6.07143 0,-3.35316 2.71828,-6.07143 6.07143,-6.07143 3.35316,0 6.07143,2.71827 6.07143,6.07143 z"
       transform="matrix(3.235294,0,0,3.235294,-244.03359,-793.17933)" />
    <path
       transform="matrix(3.235294,0,0,3.235294,-309.03359,-867.46504)"
       d="m 260,345.57648 c 0,3.35315 -2.71827,6.07143 -6.07143,6.07143 -3.35315,0 -6.07143,-2.71828 -6.07143,-6.07143 0,-3.35316 2.71828,-6.07143 6.07143,-6.07143 3.35316,0 6.07143,2.71827 6.07143,6.07143 z"
       sodipodi:ry="6.0714288"
       sodipodi:rx="6.0714288"
       sodipodi:cy="345.57648"
       sodipodi:cx="253.92857"
       id="path3795"
       style="fill:#00a6ea;fill-opacity:1;stroke:none"
       sodipodi:type="arc" />
    <path
       sodipodi:type="arc"
       style="fill:#00a6ea;fill-opacity:1;stroke:none"
       id="path3797"
       sodipodi:cx="253.92857"
       sodipodi:cy="345.57648"
       sodipodi:rx="6.0714288"
       sodipodi:ry="6.0714288"
       d="m 260,345.57648 c 0,3.35315 -2.71827,6.07143 -6.07143,6.07143 -3.35315,0 -6.07143,-2.71828 -6.07143,-6.07143 0,-3.35316 2.71828,-6.07143 6.07143,-6.07143 3.35316,0 6.07143,2.71827 6.07143,6.07143 z"
       transform="matrix(3.235294,0,0,3.235294,-414.74788,-873.17933)" />
  </g>
  <g
     inkscape:groupmode="layer"
     id="layer2"
     inkscape:label="lines"
     style="display:inline"
     transform="translate(10.714286,10.714294)">
    <path
       style="fill:none;stroke:#00a6ea;stroke-width:18;stroke-linecap:round;stroke-linejoin:miter;stroke-miterlimit:4;stroke-opacity:1;stroke-dasharray:none"
       d="M 11.071429,85.000009 72.499999,7.8571493"
       id="path3763"
       inkscape:connector-curvature="0"
       sodipodi:nodetypes="cc" />
    <path
       sodipodi:nodetypes="cc"
       inkscape:connector-curvature="0"
       id="path3765"
       d="m 239.64286,90.000009 -63.57143,-75"
       style="fill:none;stroke:#00a6ea;stroke-width:18;stroke-linecap:round;stroke-linejoin:miter;stroke-miterlimit:4;stroke-opacity:1;stroke-dasharray:none" />
    <path
       style="fill:none;stroke:#00a6ea;stroke-width:18;stroke-linecap:round;stroke-linejoin:miter;stroke-miterlimit:4;stroke-opacity:1;stroke-dasharray:none"
       d="M 110.35715,147.85715 239.64286,90.714299"
       id="path3767"
       inkscape:connector-curvature="0"
       sodipodi:nodetypes="cc" />
    <path
       sodipodi:nodetypes="cc"
       inkscape:connector-curvature="0"
       id="path3769"
       d="M 110.35715,147.85715 7.499999,86.428579"
       style="fill:none;stroke:#00a6ea;stroke-width:18;stroke-linecap:round;stroke-linejoin:miter;stroke-miterlimit:4;stroke-opacity:1;stroke-dasharray:none" />
    <path
       sodipodi:nodetypes="cc"
       inkscape:connector-curvature="0"
       id="path3773"
       d="M 176.78572,14.285719 73.928569,10.000009"
       style="fill:none;stroke:#00a6ea;stroke-width:18;stroke-linecap:round;stroke-linejoin:miter;stroke-miterlimit:4;stroke-opacity:1;stroke-dasharray:none" />
  </g>
</svg>
